# xmcd
#
# Track frame offsets:
#	150
#	19972
#	35785
#	55450
#	71826
#	90692
#	113338
#	131332
#	144094
#	159058
#	176509
#
# Disc length: 2586 seconds
#
# Revision: 0
# Processed by: cddbd v1.5.2PL0 Copyright (c) Steve Scherf et al.
# Submitted via: dBpowerAMP V4.0
#
DISCID=8b0a180b
DTITLE=Zac Brown Band - The Foundation
DYEAR=2007
DGENRE=Country
TTITLE0=Toes
TTITLE1=Whatever It Is
TTITLE2=Jolene
TTITLE3=Where the Boat Leaves From
TTITLE4=It's Not Ok
TTITLE5=Free
TTITLE6=Chicken Fried
TTITLE7=Mary
TTITLE8=Different Kind of Fine
TTITLE9=Highway 20 Ride
TTITLE10=Sic 'em on a Chicken
EXTD=
EXTT0=
EXTT1=
EXTT2=
EXTT3=
EXTT4=
EXTT5=
EXTT6=
EXTT7=
EXTT8=
EXTT9=
EXTT10=
PLAYORDER=
